<svg width="22" height="22" viewBox="0 0 22 22" fill="none" xmlns="http://www.w3.org/2000/svg">
<path d="M18.7049 3.55156C16.6473 1.58281 13.9071 0.5 10.9951 0.5C4.98437 0.5 0.0933036 5.16875 0.0933036 10.9062C0.0933036 12.7391 0.594196 14.5297 1.54688 16.1094L0 21.5L5.77991 20.0516C7.37098 20.8813 9.16339 21.3172 10.9902 21.3172H10.9951C17.0009 21.3172 22 16.6484 22 10.9109C22 8.13125 20.7625 5.52031 18.7049 3.55156ZM10.9951 19.5641C9.36473 19.5641 7.76875 19.1469 6.37902 18.3594L6.05 18.1719L2.62232 19.0297L3.53571 15.8375L3.31964 15.5094C2.41116 14.1313 1.93482 12.5422 1.93482 10.9062C1.93482 6.13906 6.00089 2.25781 11 2.25781C13.421 2.25781 15.6946 3.15781 17.4036 4.79375C19.1125 6.42969 20.1634 8.6 20.1585 10.9109C20.1585 15.6828 15.9893 19.5641 10.9951 19.5641ZM15.9647 13.0859C15.6946 12.9547 14.354 12.3266 14.1036 12.2422C13.8531 12.1531 13.6714 12.1109 13.4897 12.3734C13.308 12.6359 12.7875 13.2172 12.6254 13.3953C12.4683 13.5688 12.3062 13.5922 12.0362 13.4609C10.4353 12.6969 9.38438 12.0969 8.32857 10.3672C8.04866 9.90781 8.60848 9.94063 9.12902 8.94687C9.21741 8.77344 9.17321 8.62344 9.10446 8.49219C9.03571 8.36094 8.49063 7.08125 8.26473 6.56094C8.04375 6.05469 7.81786 6.125 7.65089 6.11563C7.49375 6.10625 7.31205 6.10625 7.13036 6.10625C6.94866 6.10625 6.65402 6.17188 6.40357 6.42969C6.15312 6.69219 5.45089 7.32031 5.45089 8.6C5.45089 9.87969 6.42813 11.1172 6.56071 11.2906C6.69821 11.4641 8.4808 14.0891 11.2161 15.2188C12.9446 15.9312 13.6223 15.9922 14.4866 15.8703C15.0121 15.7953 16.0973 15.2422 16.3232 14.6328C16.5491 14.0234 16.5491 13.5031 16.4804 13.3953C16.4165 13.2781 16.2348 13.2125 15.9647 13.0859Z" fill="black"/>
</svg>
